<?xml version="1.0" standalone="no"?>
<!DOCTYPE svg PUBLIC "-//W3C//DTD SVG 20010904//EN"
 "http://www.w3.org/TR/2001/REC-SVG-20010904/DTD/svg10.dtd">
<svg version="1.0" xmlns="http://www.w3.org/2000/svg"
 width="2361.000000pt" height="2360.000000pt" viewBox="0 0 2361.000000 2360.000000"
 preserveAspectRatio="xMidYMid meet">

<g transform="translate(0.000000,2360.000000) scale(0.100000,-0.100000)"
fill="#000000" stroke="none">
<path d="M11388 23595 c-3 -3 -108 -10 -234 -15 -1254 -53 -2624 -363 -3865
-873 -1118 -461 -2224 -1139 -3144 -1927 -460 -395 -971 -908 -1350 -1355
-1602 -1889 -2591 -4301 -2759 -6725 -34 -490 -38 -612 -33 -1010 11 -933 110
-1748 322 -2652 265 -1130 731 -2278 1335 -3288 275 -459 624 -960 951 -1366
589 -731 1336 -1454 2084 -2015 617 -463 1172 -808 1835 -1138 539 -268 984
-453 1535 -637 943 -314 1851 -498 2825 -571 280 -21 1442 -31 1615 -14 61 6
189 16 285 21 886 54 2036 299 2980 635 754 269 1588 668 2220 1063 1362 850
2481 1892 3417 3182 693 955 1287 2138 1648 3285 299 949 466 1831 536 2825
17 246 23 1042 10 1315 -91 1864 -592 3627 -1489 5235 -656 1177 -1574 2294
-2627 3195 -1067 914 -2286 1631 -3590 2110 -1313 483 -2686 725 -4109 725
-216 0 -395 -2 -398 -5z m967 -1495 c1869 -102 3622 -684 5173 -1719 980 -654
1821 -1451 2536 -2401 1127 -1500 1823 -3276 2005 -5120 41 -409 46 -527 46
-1050 0 -524 -7 -679 -46 -1070 -328 -3291 -2237 -6223 -5144 -7898 -1925
-1109 -4135 -1555 -6370 -1286 -3163 382 -5986 2228 -7627 4989 -731 1231
-1203 2617 -1368 4020 -56 479 -74 845 -67 1360 7 518 33 861 98 1320 282
1995 1127 3832 2465 5360 298 341 778 808 1135 1107 1711 1428 3824 2264 6034
2387 221 12 911 13 1130 1z"/>
<path d="M11830 20490 c-590 -24 -1218 -105 -1825 -236 -443 -95 -655 -176
-892 -338 -219 -149 -360 -208 -581 -245 -74 -13 -153 -33 -197 -52 -212 -88
-417 -303 -635 -665 -226 -377 -356 -715 -421 -1094 -33 -196 -37 -513 -9
-800 27 -278 38 -744 21 -875 -34 -256 -110 -443 -253 -620 -81 -102 -194
-198 -363 -310 -435 -289 -754 -594 -1096 -1047 -241 -320 -547 -813 -826
-1333 -351 -650 -444 -1176 -292 -1645 30 -91 127 -290 189 -385 173 -265 500
-594 855 -860 347 -261 869 -577 1266 -769 221 -106 379 -170 627 -252 108
-36 247 -89 307 -119 285 -137 467 -308 548 -514 38 -97 48 -248 23 -355 -41
-175 -157 -327 -382 -502 -200 -155 -296 -274 -375 -462 -63 -151 -73 -208
-73 -417 0 -163 3 -204 23 -285 68 -288 185 -507 365 -685 86 -85 215 -180
571 -418 340 -227 482 -330 665 -478 284 -230 492 -438 673 -673 236 -307 401
-470 633 -628 427 -291 981 -393 1636 -302 297 41 434 120 490 282 21 62 23
83 23 277 0 116 -6 332 -13 480 -15 294 -9 438 29 779 40 362 87 561 224 961
124 362 159 498 158 625 -1 200 -93 334 -271 395 -83 29 -450 105 -672 139
-281 43 -444 57 -745 62 -197 3 -321 10 -385 21 -260 43 -489 162 -686 358
-123 122 -179 196 -326 435 -131 212 -268 418 -378 570 -189 260 -282 460
-330 708 -69 358 -8 739 168 1039 70 120 155 224 280 344 141 136 245 211 472
341 296 169 445 276 626 451 304 292 479 600 609 1066 69 252 188 450 348 578
95 78 166 108 252 108 87 -1 152 -31 238 -114 124 -118 199 -263 292 -566 197
-637 525 -1110 903 -1299 276 -139 608 -141 997 -6 218 76 395 168 676 351
265 173 391 229 519 232 181 3 251 -141 281 -574 19 -281 -4 -558 -146 -1742
-36 -296 -65 -547 -65 -557 0 -11 13 -34 29 -52 59 -66 -38 -111 1611 760 576
304 1136 618 1280 716 171 117 329 309 435 531 141 293 231 613 277 980 16
130 16 567 -1 715 -56 513 -181 935 -405 1365 -333 640 -816 1119 -1446 1435
-508 255 -832 638 -960 1134 -35 136 -84 442 -150 941 -58 434 -79 562 -121
729 -172 683 -537 1182 -1059 1449 -69 36 -210 97 -315 137 -425 162 -618 260
-824 418 -300 228 -1273 396 -2101 362z"/>
<path d="M11260 10820 c-56 -12 -88 -27 -166 -82 -90 -61 -134 -109 -134 -145
0 -57 111 -221 175 -258 76 -44 74 -45 925 21 499 38 522 42 528 98 4 33 -24
158 -45 198 -7 15 -26 34 -41 42 -15 8 -147 27 -302 45 -377 42 -445 49 -675
66 -110 9 -207 17 -215 19 -8 2 -31 0 -50 -4z"/>
<path d="M11870 9364 c-386 -26 -742 -83 -969 -156 -152 -48 -371 -168 -371
-203 0 -14 26 -45 39 -45 4 0 83 7 176 15 94 8 303 19 465 25 162 6 412 17
555 25 239 14 730 36 1445 66 157 6 291 16 298 21 18 15 15 46 -5 57 -37 19
-314 93 -453 121 -184 37 -350 57 -565 70 -154 9 -503 11 -615 4z"/>
<path d="M11167 8453 c-4 -3 -7 -19 -7 -35 0 -24 19 -48 98 -127 116 -114 243
-203 345 -239 227 -80 497 -7 705 191 77 75 48 117 -81 117 -75 0 -445 37
-793 80 -165 21 -256 25 -267 13z"/>
<path d="M15229 7403 c-5 -16 -61 -161 -124 -323 -454 -1174 -559 -1474 -624
-1797 -54 -261 -10 -492 125 -672 60 -80 79 -90 110 -60 57 58 457 820 568
1080 141 334 189 552 190 859 0 205 -8 274 -60 510 -29 129 -110 398 -126 418
-18 21 -48 14 -59 -15z"/>
</g>
</svg>
